<svg height="512" viewBox="0 0 128 128" width="512" xmlns="http://www.w3.org/2000/svg"><path d="m122.885 100.8h-9v-57.465l9.84-9.839a4.011 4.011 0 0 0 0-5.675l-7.317-7.321a4.012 4.012 0 0 0 -5.674 0l-14.773 14.772h-71.872a7.008 7.008 0 0 0 -7 7v58.528h-8.989a1 1 0 0 0 -1 1v3.933a6.952 6.952 0 0 0 6.945 6.945h102.9a6.953 6.953 0 0 0 6.947-6.945v-3.933a1 1 0 0 0 -1.007-1z" fill="#808e9b"/><path d="m89.408 58.4-15.224 3.648 3.642-15.227 14.548-14.549h-72.285a6 6 0 0 0 -6 6v59.528h94.8v-58.879z" fill="#6dc9f7"/><path d="m89.408 58.4-15.224 3.648 3.642-15.227 5.711-5.712h-60.42a2 2 0 0 0 -2 2v54.691h80.745v-51.851z" fill="#d4fbff"/><path d="m98.862 48.949v48.849h3v-51.849z" fill="#fff"/><path d="m4.1 97.8v3.933a5.945 5.945 0 0 0 5.945 5.945h102.9a5.946 5.946 0 0 0 5.947-5.945v-3.933z" fill="#0089ef"/><path d="m4.1 97.8v3.933a5.945 5.945 0 0 0 5.945 5.945h102.9a5.946 5.946 0 0 0 5.947-5.945v-3.933z" fill="#0089ef"/><path d="m42.439 97.8v1.991a3.009 3.009 0 0 0 3.009 3.009h32.083a3.009 3.009 0 0 0 3.009-3.009v-1.991z" fill="#6dc9f7"/><path d="m60.31 56.048h-6.81a1 1 0 0 1 0-2h6.81a1 1 0 0 1 0 2z" fill="#fa8231"/><path d="m47.5 56.048h-14.831a1 1 0 1 1 0-2h14.831a1 1 0 1 1 0 2z" fill="#fa8231"/><path d="m89.408 58.4-15.224 3.648 3.642-15.227 29.614-29.615a3.014 3.014 0 0 1 4.261 0l7.322 7.322a3.013 3.013 0 0 1 0 4.26z" fill="#f7b731"/><path d="m89.408 58.4-11.582-11.579 29.614-29.615a3.014 3.014 0 0 1 4.261 0l7.322 7.322a3.013 3.013 0 0 1 0 4.26z" fill="#fa8231"/><path d="m116.2 31.607 2.819-2.819a3.013 3.013 0 0 0 0-4.26l-7.319-7.322a3.014 3.014 0 0 0 -4.261 0l-2.818 2.819z" fill="#0089ef"/><g fill="#1E272E"><path d="m21.117 87.284a1 1 0 0 0 1-1v-9.667a1 1 0 0 0 -2 0v9.667a1 1 0 0 0 1 1z"/><path d="m118.885 96.8h-9v-57.464l9.84-9.84a4.014 4.014 0 0 0 0-5.675l-7.318-7.321a4.011 4.011 0 0 0 -5.673 0l-14.774 14.772h-71.871a7.008 7.008 0 0 0 -7 7v58.528h-9a1 1 0 0 0 -1 1v3.933a6.953 6.953 0 0 0 6.946 6.945h102.9a6.953 6.953 0 0 0 6.946-6.945v-3.933a1 1 0 0 0 -.996-1zm-11 0h-5.028v-50.437l5.028-5.027zm-29.661-36.747-2.045-2.046 2.2-9.215 9.056 9.055zm11.184-3.064-10.168-10.168 25.382-25.382 10.168 10.168zm18.74-39.076a2.06 2.06 0 0 1 2.845 0l7.323 7.322a2.015 2.015 0 0 1 0 2.847l-2.116 2.111-10.164-10.168zm-93.059 20.359a5.006 5.006 0 0 1 5-5h69.871l-6.837 6.837h-60.006a3 3 0 0 0 -3 3v29.841a1 1 0 0 0 2 0v-29.841a1 1 0 0 1 1-1h58.006l-4.005 4c-.113.113-2.961 11.807-3.721 14.934h-5.397a1 1 0 0 0 0 2h6.184a1.02 1.02 0 0 0 .232-.027l15.225-3.645a1 1 0 0 0 .474-.266l10.747-10.747v48.442h-78.745v-7.183a1 1 0 0 0 -2 0v7.183h-5.028zm102.8 63.459a4.951 4.951 0 0 1 -4.946 4.945h-102.903a4.951 4.951 0 0 1 -4.946-4.945v-2.931h112.791z"/><path d="m37.669 63.048h25.166a1 1 0 1 0 0-2h-25.166a1 1 0 0 0 0 2z"/><path d="m55.089 69.048a1 1 0 0 0 1 1h34.222a1 1 0 0 0 0-2h-34.222a1 1 0 0 0 -1 1z"/><path d="m37.669 70.048h12.331a1 1 0 1 0 0-2h-12.331a1 1 0 0 0 0 2z"/><path d="m37.669 77.048h52.642a1 1 0 0 0 0-2h-52.642a1 1 0 0 0 0 2z"/></g><path d="m60.31 84.048h-10.31a1 1 0 0 1 0-2h10.31a1 1 0 0 1 0 2z" fill="#fa8231"/><path d="m46 84.048h-13.331a1 1 0 1 1 0-2h13.331a1 1 0 1 1 0 2z" fill="#fa8231"/></svg>