<svg height="512" viewBox="0 0 128 128" width="512" xmlns="http://www.w3.org/2000/svg"><path d="m113.372 48.209-4.921-3.184a5.968 5.968 0 0 1 -2.316-7.127l2.109-5.47a7.942 7.942 0 0 0 -7.838-10.79l-5.853.316a5.964 5.964 0 0 1 -6.064-4.4l-1.508-5.666a7.943 7.943 0 0 0 -12.681-4.125l-4.55 3.7a5.965 5.965 0 0 1 -7.494 0l-4.55-3.7a7.943 7.943 0 0 0 -12.684 4.122l-1.508 5.664a5.959 5.959 0 0 1 -6.064 4.405l-5.853-.316a7.943 7.943 0 0 0 -7.838 10.791l2.106 5.471a5.969 5.969 0 0 1 -2.316 7.128l-4.921 3.184a7.943 7.943 0 0 0 0 13.338l4.921 3.185a5.967 5.967 0 0 1 2.316 7.127l-2.109 5.469a7.931 7.931 0 0 0 7.644 10.786l-10.338 22.17a2 2 0 0 0 2.235 2.8l17.225-3.731 8.211 15.592a1.989 1.989 0 0 0 1.769 1.068h.049a1.987 1.987 0 0 0 1.764-1.153l12.975-27.831a5.969 5.969 0 0 1 1.42 0l12.977 27.831a1.989 1.989 0 0 0 1.765 1.153h.048a1.989 1.989 0 0 0 1.769-1.068l8.211-15.592 17.225 3.731a2 2 0 0 0 2.235-2.8l-10.34-22.171a7.931 7.931 0 0 0 7.641-10.789l-2.109-5.467a5.968 5.968 0 0 1 2.316-7.128l4.921-3.185a7.943 7.943 0 0 0 0-13.338z" fill="#808e9b"/><path d="m95 83.04-4.394-.24a6.942 6.942 0 0 0 -7.083 5.147l-1.509 5.664a6.942 6.942 0 0 1 -11.086 3.6l-4.55-3.7a6.91 6.91 0 0 0 -2.989-1.4l13.2 28.317a1 1 0 0 0 1.791.044l8.566-16.265 17.966 3.893a1 1 0 0 0 1.119-1.4z" fill="#fa8231"/><path d="m57.622 93.52-4.55 3.7a6.942 6.942 0 0 1 -11.086-3.6l-1.509-5.67a6.942 6.942 0 0 0 -7.083-5.15l-4.394.24-11.036 23.671a1 1 0 0 0 1.119 1.4l17.966-3.893 8.566 16.265a1 1 0 0 0 1.791-.044l13.2-28.317a6.91 6.91 0 0 0 -2.984 1.398z" fill="#fa8231"/><path d="m66.378 8.236 4.55-3.7a6.942 6.942 0 0 1 11.086 3.6l1.509 5.665a6.94 6.94 0 0 0 7.083 5.146l5.854-.316a6.943 6.943 0 0 1 6.852 9.431l-2.11 5.47a6.943 6.943 0 0 0 2.706 8.327l4.921 3.185a6.942 6.942 0 0 1 0 11.657l-4.921 3.185a6.942 6.942 0 0 0 -2.706 8.327l2.11 5.469a6.943 6.943 0 0 1 -6.852 9.431l-5.854-.313a6.942 6.942 0 0 0 -7.083 5.147l-1.509 5.664a6.942 6.942 0 0 1 -11.086 3.6l-4.55-3.7a6.944 6.944 0 0 0 -8.756 0l-4.55 3.7a6.942 6.942 0 0 1 -11.086-3.6l-1.509-5.661a6.942 6.942 0 0 0 -7.083-5.15l-5.854.316a6.943 6.943 0 0 1 -6.852-9.431l2.11-5.469a6.942 6.942 0 0 0 -2.706-8.327l-4.921-3.185a6.942 6.942 0 0 1 0-11.657l4.921-3.185a6.943 6.943 0 0 0 2.708-8.324l-2.11-5.47a6.943 6.943 0 0 1 6.852-9.431l5.854.316a6.94 6.94 0 0 0 7.083-5.146l1.509-5.665a6.942 6.942 0 0 1 11.086-3.6l4.55 3.7a6.941 6.941 0 0 0 8.754-.006z" fill="#6dc9f7"/><circle cx="62" cy="50.878" fill="#0089ef" r="33.502"/><path d="m62 20.377a33.5 33.5 0 0 1 33.464 32c.022-.5.038-1 .038-1.5a33.5 33.5 0 0 0 -67 0c0 .5.016 1 .038 1.5a33.5 33.5 0 0 1 33.46-32z" fill="#fff"/><path d="m109.372 44.21-4.921-3.186a5.967 5.967 0 0 1 -2.316-7.127l2.109-5.468a7.941 7.941 0 0 0 -7.838-10.79l-5.853.316a5.983 5.983 0 0 1 -6.064-4.4l-1.508-5.67a7.943 7.943 0 0 0 -12.681-4.121l-4.55 3.7a5.968 5.968 0 0 1 -7.494 0l-4.55-3.7a7.942 7.942 0 0 0 -12.687 4.122l-1.508 5.663a5.962 5.962 0 0 1 -6.064 4.405l-5.853-.314a7.94 7.94 0 0 0 -7.838 10.788l2.109 5.47a5.966 5.966 0 0 1 -2.316 7.126l-4.921 3.186a7.943 7.943 0 0 0 0 13.337l4.921 3.184a5.971 5.971 0 0 1 2.316 7.128l-2.109 5.469a7.932 7.932 0 0 0 7.644 10.789l-10.341 22.171a2 2 0 0 0 2.236 2.8l17.223-3.732 8.212 15.593a1.989 1.989 0 0 0 1.768 1.069h.05a1.989 1.989 0 0 0 1.764-1.155l12.978-27.83a6.022 6.022 0 0 1 1.42 0l12.977 27.829a1.991 1.991 0 0 0 1.765 1.155h.05a1.989 1.989 0 0 0 1.768-1.069l8.212-15.593 17.223 3.732a2 2 0 0 0 2.236-2.8l-10.341-22.17a7.931 7.931 0 0 0 7.641-10.788l-2.109-5.47a5.971 5.971 0 0 1 2.316-7.128l4.921-3.184a7.943 7.943 0 0 0 0-13.337zm-62.872 75.808-8.566-16.266a1 1 0 0 0 -.885-.534 1.1 1.1 0 0 0 -.212.022l-17.966 3.894 10.784-23.127 3.792-.2a5.95 5.95 0 0 1 6.064 4.4l1.508 5.666a7.943 7.943 0 0 0 12.681 4.12l4.55-3.7c.111-.091.235-.156.351-.238zm58.631-12.885-17.968-3.893a1.006 1.006 0 0 0 -1.1.512l-8.563 16.265-12.1-25.957c.116.081.24.146.351.237l4.55 3.7a7.915 7.915 0 0 0 5 1.78 8.005 8.005 0 0 0 2.465-.391 7.913 7.913 0 0 0 5.221-5.511l1.508-5.664a5.952 5.952 0 0 1 6.064-4.4l3.8.2 10.789 23.127zm3.155-51.266-4.921 3.185a7.976 7.976 0 0 0 -3.095 9.526l2.109 5.471a5.941 5.941 0 0 1 -5.865 8.071l-5.854-.32a8.025 8.025 0 0 0 -8.1 5.888l-1.508 5.664a5.942 5.942 0 0 1 -9.489 3.084l-4.55-3.7a7.983 7.983 0 0 0 -10.018 0l-4.55 3.7a5.943 5.943 0 0 1 -9.489-3.083l-1.508-5.666a7.993 7.993 0 0 0 -8.1-5.887l-5.854.316a5.841 5.841 0 0 1 -5.129-2.44 5.925 5.925 0 0 1 -.736-5.632l2.109-5.47a7.976 7.976 0 0 0 -3.095-9.526l-4.921-3.185a5.942 5.942 0 0 1 0-9.977l4.913-3.186a7.973 7.973 0 0 0 3.095-9.525l-2.109-5.471a5.941 5.941 0 0 1 5.865-8.071l5.854.315a8 8 0 0 0 8.1-5.889l1.512-5.659a5.942 5.942 0 0 1 9.489-3.084l4.55 3.7a7.98 7.98 0 0 0 10.018 0l4.55-3.7a5.942 5.942 0 0 1 9.489 3.084l1.508 5.665a8.005 8.005 0 0 0 8.1 5.888l5.854-.315a5.941 5.941 0 0 1 5.865 8.072l-2.109 5.469a7.974 7.974 0 0 0 3.095 9.526l4.921 3.186a5.942 5.942 0 0 1 0 9.977z" fill="#1E272E"/><path d="m84.617 74.22a32.542 32.542 0 0 1 -8.064 5.728 1 1 0 0 0 .447 1.894.983.983 0 0 0 .447-.107 34.509 34.509 0 0 0 8.561-6.08 1 1 0 0 0 -1.393-1.435z" fill="#1E272E"/><path d="m62 16.377a34.5 34.5 0 1 0 11.526 67.03 1 1 0 1 0 -.668-1.885 32.523 32.523 0 1 1 14.5-10.31 1 1 0 0 0 1.561 1.252 34.5 34.5 0 0 0 -26.919-56.087z" fill="#1E272E"/><g fill="#fff"><path d="m62.27 26.45 1.242 2.515 2.775.4a.3.3 0 0 1 .167.514l-2.008 1.961.474 2.76a.3.3 0 0 1 -.437.317l-2.483-1.3-2.483 1.3a.3.3 0 0 1 -.437-.317l.474-2.765-2.008-1.958a.3.3 0 0 1 .167-.514l2.775-.4 1.242-2.513a.3.3 0 0 1 .54 0z"/><path d="m50.371 30.428.869 1.761 1.943.282a.211.211 0 0 1 .117.36l-1.406 1.369.332 1.935a.211.211 0 0 1 -.306.223l-1.738-.914-1.738.914a.211.211 0 0 1 -.306-.223l.332-1.935-1.406-1.37a.211.211 0 0 1 .117-.36l1.943-.282.869-1.761a.211.211 0 0 1 .378.001z"/><path d="m74.007 30.428.869 1.761 1.943.282a.211.211 0 0 1 .117.36l-1.406 1.369.332 1.935a.211.211 0 0 1 -.306.223l-1.738-.914-1.738.914a.211.211 0 0 1 -.306-.223l.332-1.935-1.406-1.369a.211.211 0 0 1 .117-.36l1.943-.282.869-1.761a.211.211 0 0 1 .378 0z"/><path d="m62.27 75.306 1.242-2.515 2.775-.4a.3.3 0 0 0 .167-.514l-2.008-1.958.474-2.764a.3.3 0 0 0 -.437-.318l-2.483 1.302-2.483-1.3a.3.3 0 0 0 -.437.318l.474 2.764-2.008 1.958a.3.3 0 0 0 .167.514l2.775.4 1.242 2.515a.3.3 0 0 0 .54-.002z"/><path d="m50.371 71.328.869-1.76 1.943-.283a.21.21 0 0 0 .117-.359l-1.406-1.371.332-1.935a.211.211 0 0 0 -.306-.222l-1.738.913-1.738-.911a.211.211 0 0 0 -.306.222l.332 1.935-1.406 1.371a.21.21 0 0 0 .117.359l1.943.283.869 1.76a.211.211 0 0 0 .378-.002z"/><path d="m74.007 71.328.869-1.76 1.943-.283a.21.21 0 0 0 .117-.359l-1.406-1.371.332-1.935a.211.211 0 0 0 -.306-.222l-1.738.913-1.738-.911a.211.211 0 0 0 -.306.222l.332 1.935-1.406 1.369a.21.21 0 0 0 .117.359l1.943.283.869 1.76a.211.211 0 0 0 .378 0z"/><path d="m49.645 43.826a1.613 1.613 0 0 1 .43 1.163v11.757a1.64 1.64 0 0 1 -.43 1.184 1.474 1.474 0 0 1 -1.121.451 1.51 1.51 0 0 1 -1.215-.545l-7.021-8.991v7.9a1.69 1.69 0 0 1 -.409 1.184 1.409 1.409 0 0 1 -1.1.451 1.443 1.443 0 0 1 -1.111-.451 1.668 1.668 0 0 1 -.419-1.184v-11.756a1.613 1.613 0 0 1 .43-1.163 1.476 1.476 0 0 1 1.121-.451 1.42 1.42 0 0 1 1.2.545l7.02 8.928v-7.859a1.641 1.641 0 0 1 .419-1.163 1.42 1.42 0 0 1 1.09-.451 1.474 1.474 0 0 1 1.116.451z"/><path d="m53.407 57.857a1.53 1.53 0 0 1 -.4-1.131v-11.716a1.387 1.387 0 0 1 1.53-1.53h7.419q1.551 0 1.551 1.258 0 1.278-1.551 1.278h-5.756v3.458h5.343q1.553 0 1.552 1.278 0 1.257-1.552 1.258h-5.343v3.709h5.763q1.551 0 1.551 1.279 0 1.257-1.551 1.257h-7.424a1.53 1.53 0 0 1 -1.132-.398z"/><path d="m84.414 43.6a1.6 1.6 0 0 1 1.907.115 1.293 1.293 0 0 1 .43 1.027 2.2 2.2 0 0 1 -.126.691l-4.359 11.921a1.517 1.517 0 0 1 -.66.786 1.977 1.977 0 0 1 -1.038.283 1.918 1.918 0 0 1 -1.026-.283 1.526 1.526 0 0 1 -.65-.786l-3.123-8.823-3.207 8.823a1.524 1.524 0 0 1 -.649.786 1.985 1.985 0 0 1 -2.043 0 1.514 1.514 0 0 1 -.661-.786l-4.359-11.925a2.012 2.012 0 0 1 -.126-.67 1.287 1.287 0 0 1 .462-1.038 1.722 1.722 0 0 1 2-.125 1.5 1.5 0 0 1 .6.764l3.228 9.285 3.351-9.245a1.56 1.56 0 0 1 .6-.775 1.542 1.542 0 0 1 .87-.273 1.52 1.52 0 0 1 .88.273 1.567 1.567 0 0 1 .587.8l3.207 9.389 3.332-9.452a1.538 1.538 0 0 1 .573-.762z"/></g></svg>