<svg height="512" viewBox="0 0 128 128" width="512" xmlns="http://www.w3.org/2000/svg"><path d="m123.4 104.162h-9v-58.526a7.008 7.008 0 0 0 -7-7h-15.423c-.009 0-.016 0-.024 0h-3.025a22.824 22.824 0 0 0 -2.754-6.636l2.142-2.143a2.584 2.584 0 0 0 0-3.653l-4.016-4.024a2.584 2.584 0 0 0 -3.653 0l-2.147 2.142a22.909 22.909 0 0 0 -6.636-2.755v-3.024a2.586 2.586 0 0 0 -2.584-2.583h-5.687a2.586 2.586 0 0 0 -2.584 2.583v3.024a22.886 22.886 0 0 0 -6.636 2.755l-2.143-2.143a2.587 2.587 0 0 0 -3.653 0l-4.021 4.021a2.583 2.583 0 0 0 0 3.654l2.144 2.146a22.885 22.885 0 0 0 -2.754 6.637h-3.027c-.008 0-.015 0-.024 0h-16.295a7.008 7.008 0 0 0 -7 7v58.526h-9a1 1 0 0 0 -1 1v3.937a6.953 6.953 0 0 0 6.945 6.945h102.9a6.953 6.953 0 0 0 6.955-6.945v-3.933a1 1 0 0 0 -1-1.005z" fill="#e6e7e8"/><path d="m109.4 101.162v-59.526a6 6 0 0 0 -6-6h-82.8a6 6 0 0 0 -6 6v59.526z" fill="#6dc9f7"/><path d="m102.373 101.162v-54.689a2 2 0 0 0 -2-2h-76.745a2 2 0 0 0 -2 2v54.689z" fill="#d4fbff"/><path d="m21.628 98.162h80.745v3h-80.745z" fill="#fff"/><path d="m4.605 101.162v3.938a5.945 5.945 0 0 0 5.945 5.945h102.9a5.946 5.946 0 0 0 5.95-5.945v-3.933z" fill="#0089ef"/><path d="m4.605 101.162v3.938a5.945 5.945 0 0 0 5.945 5.945h102.9a5.946 5.946 0 0 0 5.95-5.945v-3.933z" fill="#0089ef"/><path d="m42.949 101.162v1.991a3.01 3.01 0 0 0 3.01 3.009h32.082a3.01 3.01 0 0 0 3.01-3.009v-1.991z" fill="#6dc9f7"/><circle cx="62.436" cy="40.06" fill="#f7b731" r="12.956"/><path d="m89.536 42.9v-5.683a1.584 1.584 0 0 0 -1.584-1.584h-3.826a22 22 0 0 0 -3.226-7.776l2.71-2.71a1.584 1.584 0 0 0 0-2.239l-4.021-4.021a1.582 1.582 0 0 0 -2.239 0l-2.71 2.71a22 22 0 0 0 -7.776-3.227v-3.826a1.584 1.584 0 0 0 -1.584-1.584h-5.687a1.584 1.584 0 0 0 -1.584 1.584v3.826a22 22 0 0 0 -7.776 3.23l-2.71-2.71a1.582 1.582 0 0 0 -2.239 0l-4.021 4.021a1.584 1.584 0 0 0 0 2.239l2.71 2.71a22 22 0 0 0 -3.227 7.776h-3.826a1.584 1.584 0 0 0 -1.584 1.584v5.68a1.584 1.584 0 0 0 1.584 1.584h3.826a22 22 0 0 0 3.227 7.776l-2.71 2.71a1.584 1.584 0 0 0 0 2.239l4.021 4.021a1.584 1.584 0 0 0 2.239 0l2.71-2.71a22 22 0 0 0 7.776 3.227v3.826a1.584 1.584 0 0 0 1.584 1.584h5.686a1.584 1.584 0 0 0 1.584-1.584v-3.823a22 22 0 0 0 7.776-3.227l2.71 2.71a1.584 1.584 0 0 0 2.239 0l4.021-4.021a1.584 1.584 0 0 0 0-2.239l-2.71-2.71a22 22 0 0 0 3.227-7.776h3.826a1.584 1.584 0 0 0 1.584-1.587zm-27.1 10.113a12.956 12.956 0 1 1 12.956-12.953 12.957 12.957 0 0 1 -12.956 12.956z" fill="#fa8231"/><g fill="#1e272e"><path d="m102.372 66.4a1 1 0 0 0 -1 1v9.349a1 1 0 0 0 2 0v-9.349a1 1 0 0 0 -1-1z"/><path d="m119.4 100.162h-9v-58.526a7.008 7.008 0 0 0 -7-7h-15.424-.024-3.023a22.926 22.926 0 0 0 -2.755-6.636l2.142-2.142a2.584 2.584 0 0 0 0-3.653l-4.016-4.025a2.583 2.583 0 0 0 -3.653 0l-2.147 2.142a22.892 22.892 0 0 0 -6.637-2.755v-3.024a2.586 2.586 0 0 0 -2.583-2.583h-5.687a2.587 2.587 0 0 0 -2.584 2.583v3.024a22.909 22.909 0 0 0 -6.636 2.755l-2.142-2.143a2.588 2.588 0 0 0 -3.654 0l-4.021 4.021a2.583 2.583 0 0 0 0 3.654l2.144 2.146a22.926 22.926 0 0 0 -2.755 6.637h-3.026c-.008 0-.015 0-.024 0h-16.295a7.008 7.008 0 0 0 -7 7v58.526h-8.995a1 1 0 0 0 -1 1v3.937a6.953 6.953 0 0 0 6.945 6.945h102.9a6.954 6.954 0 0 0 6.95-6.945v-3.933a1 1 0 0 0 -1-1.005zm-11-58.526v58.526h-5.028v-19.1a1 1 0 0 0 -2 0v19.1h-78.744v-53.689a1 1 0 0 1 1-1h13.161c.044 0 .086.013.13.013h3.024a22.92 22.92 0 0 0 2.757 6.638l-2.142 2.141a2.583 2.583 0 0 0 0 3.654l4.021 4.021a2.587 2.587 0 0 0 3.654 0l2.14-2.14a22.9 22.9 0 0 0 6.636 2.754v3.024a2.587 2.587 0 0 0 2.584 2.584h5.686a2.586 2.586 0 0 0 2.583-2.584v-3.026a22.846 22.846 0 0 0 6.638-2.752l2.143 2.142a2.585 2.585 0 0 0 3.653 0l4.021-4.021a2.584 2.584 0 0 0 0-3.653l-2.142-2.142a22.92 22.92 0 0 0 2.755-6.638h3.023c.045 0 .086-.011.131-.013h12.289a1 1 0 0 1 1 1v16.339a1 1 0 1 0 2 0v-16.341a3 3 0 0 0 -3-3h-9.9a2.555 2.555 0 0 0 .068-.57v-5.686a2.581 2.581 0 0 0 -.071-.581h12.93a5.006 5.006 0 0 1 5 5zm-66.674-5.8a20.919 20.919 0 0 1 3.081-7.424 1 1 0 0 0 -.127-1.26l-2.71-2.71a.582.582 0 0 1 0-.824l4.021-4.021a.585.585 0 0 1 .825 0l2.71 2.71a1 1 0 0 0 1.259.126 20.935 20.935 0 0 1 7.424-3.08 1 1 0 0 0 .8-.98v-3.83a.584.584 0 0 1 .584-.583h5.686a.584.584 0 0 1 .583.583v3.827a1 1 0 0 0 .8.98 20.915 20.915 0 0 1 7.423 3.08 1 1 0 0 0 1.26-.126l2.71-2.71a.583.583 0 0 1 .825 0l4.02 4.021a.583.583 0 0 1 0 .825l-2.71 2.709a1 1 0 0 0 -.127 1.26 20.957 20.957 0 0 1 3.082 7.424 1 1 0 0 0 .979.8h3.826a.585.585 0 0 1 .584.584v5.683a.584.584 0 0 1 -.584.583h-3.824a1 1 0 0 0 -.979.8 20.965 20.965 0 0 1 -3.082 7.424 1 1 0 0 0 .127 1.259l2.71 2.71a.583.583 0 0 1 0 .825l-4.021 4.021a.585.585 0 0 1 -.825 0l-2.71-2.71a1 1 0 0 0 -1.259-.126 20.95 20.95 0 0 1 -7.424 3.08 1 1 0 0 0 -.8.98v3.826a.584.584 0 0 1 -.583.584h-5.687a.585.585 0 0 1 -.584-.584v-3.822a1 1 0 0 0 -.8-.98 20.937 20.937 0 0 1 -7.423-3.081 1 1 0 0 0 -1.259.127l-2.71 2.709a.583.583 0 0 1 -.825 0l-4.022-4.025a.582.582 0 0 1 0-.824l2.71-2.71a1 1 0 0 0 .127-1.259 20.926 20.926 0 0 1 -3.081-7.424 1 1 0 0 0 -.98-.8h-3.827a.584.584 0 0 1 -.583-.583v-5.683a.584.584 0 0 1 .583-.584h3.827a1 1 0 0 0 .98-.8zm-26.126 5.8a5.006 5.006 0 0 1 5-5h13.808a2.525 2.525 0 0 0 -.072.581v5.683a2.555 2.555 0 0 0 .068.57h-10.776a3 3 0 0 0 -3 3v53.689h-5.028zm102.8 63.464a4.952 4.952 0 0 1 -4.948 4.945h-102.902a4.95 4.95 0 0 1 -4.945-4.945v-2.933h112.795z"/><path d="m62.436 54.016a13.956 13.956 0 1 0 -13.956-13.956 13.972 13.972 0 0 0 13.956 13.956zm0-25.912a11.956 11.956 0 1 1 -11.956 11.956 11.97 11.97 0 0 1 11.956-11.96z"/><path d="m51.216 74.468a2.659 2.659 0 0 0 -1.019-1.08 2.848 2.848 0 0 0 -2.851-.015 2.353 2.353 0 0 0 -.99 1.095l-8.1 17.01a2.406 2.406 0 0 0 -.24.96 1.8 1.8 0 0 0 .69 1.425 2.353 2.353 0 0 0 1.56.585 2 2 0 0 0 1.1-.315 2.028 2.028 0 0 0 .764-.945l1.59-3.541h10.17l1.59 3.541a2 2 0 0 0 1.86 1.26 2.3 2.3 0 0 0 1.545-.585 1.818 1.818 0 0 0 .675-1.425 2.406 2.406 0 0 0 -.24-.96zm-5.91 11.639 3.51-7.8 3.48 7.8z"/><path d="m71.856 73.178h-7.53a1.986 1.986 0 0 0 -2.191 2.19v16.8a2.343 2.343 0 1 0 4.681 0v-5.79h5.04a7.71 7.71 0 0 0 5.37-1.739 7.112 7.112 0 0 0 0-9.721 7.715 7.715 0 0 0 -5.37-1.74zm-.6 9.659h-4.44v-6.089h4.439q3.51 0 3.511 3.06 0 3.03-3.511 3.029z"/><path d="m84.516 73.028a2.309 2.309 0 0 0 -1.71.63 2.266 2.266 0 0 0 -.631 1.679v16.83a2.343 2.343 0 1 0 4.681 0v-16.83a2.27 2.27 0 0 0 -.63-1.679 2.311 2.311 0 0 0 -1.71-.63z"/></g></svg>