<svg height="512" viewBox="0 0 128 128" width="512" xmlns="http://www.w3.org/2000/svg"><rect fill="#e6e7e8" height="22.18" rx="1" width="9.25" x="18.832" y="92.673"/><path d="m122.687 103.023-15.979-14.555a51 51 0 1 0 -76.376 5.725v19.659a1 1 0 0 0 1 1h67.231v9.362a1 1 0 0 0 .6.915 1.024 1.024 0 0 0 .4.085 1 1 0 0 0 .674-.261l22.45-20.451a1 1 0 0 0 0-1.479z" fill="#e6e7e8"/><rect fill="#e6e7e8" height="22.18" rx="1" width="7.096" x="8.986" y="92.673"/><path d="m27.333 89.673h68.23v-10.36l5.8 5.284a50 50 0 1 0 -74.031 5.2z" fill="#fa8231"/><path d="m40.9 89.673h42.21a41.636 41.636 0 1 0 -42.21 0z" fill="#f7b731"/><path d="m87.622 53.787h16.014a41.575 41.575 0 0 0 -17.759-34.1l-9.19 13.124a25.574 25.574 0 0 1 10.935 20.976z" fill="#0089ef"/><path d="m62 28.164a25.482 25.482 0 0 1 14.687 4.647l9.19-13.124a41.594 41.594 0 0 0 -47.754 0l9.19 13.124a25.482 25.482 0 0 1 14.687-4.647z" fill="#6dc9f7"/><path d="m47.313 32.811-9.19-13.124a41.575 41.575 0 0 0 -17.759 34.1h16.014a25.574 25.574 0 0 1 10.935-20.976z" fill="#d4fbff"/><path d="m87.167 33.6-23.314 14.056a6.4 6.4 0 1 0 4.552 6.131c0-.131-.011-.258-.019-.386z" fill="#fa8231"/><path d="m62 57.694a6.406 6.406 0 0 1 -6.282-5.157 6.405 6.405 0 1 0 12.564 0 6.407 6.407 0 0 1 -6.282 5.157z" fill="#fff"/><path d="m15.833 89.673h7.25v20.18h-7.25z" fill="#0089ef"/><path d="m118.013 99.763-22.45-20.45v10.36h-68.23v20.18h68.23v10.36z" fill="#0089ef"/><path d="m5.986 89.673h5.096v20.18h-5.096z" fill="#0089ef"/><g fill="#1e272e"><path d="m23.083 88.673h-7.25a1 1 0 0 0 -1 1v20.18a1 1 0 0 0 1 1h7.25a1 1 0 0 0 1-1v-20.18a1 1 0 0 0 -1-1zm-1 20.18h-5.25v-18.18h5.25z"/><path d="m118.688 99.024-16-14.57a51 51 0 1 0 -76.36 5.716v19.683a1 1 0 0 0 1 1h18.422a1 1 0 1 0 0-2h-17.417v-18.18h67.231a1 1 0 0 0 1-1v-8.1l19.964 18.187-19.964 18.189v-8.1a1 1 0 0 0 -1-1h-27.159a1 1 0 0 0 0 2h26.159v9.36a1 1 0 0 0 1.673.739l22.451-20.45a1 1 0 0 0 0-1.478zm-52.717-51.478 15.39-9.278-12.385 13.058a7.433 7.433 0 0 0 -3.005-3.78zm1.434 6.24a5.406 5.406 0 1 1 -5.405-5.405 5.411 5.411 0 0 1 5.405 5.405zm20.541-20.813a1 1 0 0 0 -1.3-.23l-5.071 3.057a26.628 26.628 0 0 0 -3.514-3.21l8.047-11.49a40.6 40.6 0 0 1 16.5 31.687h-14.008a26.57 26.57 0 0 0 -4.8-14.19l4.086-4.308a1 1 0 0 0 .06-1.316zm-11.514-1.54a26.529 26.529 0 0 0 -28.864 0l-8.039-11.482a40.528 40.528 0 0 1 44.942 0zm-38.54-10.333 8.045 11.49a26.658 26.658 0 0 0 -10.54 20.2h-14.007a40.6 40.6 0 0 1 16.502-31.69zm-1.514 33.686a1 1 0 0 0 1-1 24.586 24.586 0 0 1 42.458-16.934l-16.142 9.732a7.4 7.4 0 1 0 5.711 7.2v-.004l12.995-13.7a24.54 24.54 0 0 1 4.223 13.706 1 1 0 0 0 1 1h14.977a40.628 40.628 0 0 1 -19.83 33.887h-41.541a40.628 40.628 0 0 1 -19.829-33.887zm50.085 33.887a42.983 42.983 0 0 0 8.1-7.419v7.419zm10.025-9.873a42.636 42.636 0 1 0 -58.921 9.872h-9.907a49 49 0 1 1 73.55-5.57z"/><path d="m63.5 108.853h-13a1 1 0 0 0 0 2h13a1 1 0 1 0 0-2z"/><path d="m11.083 88.673h-5.1a1 1 0 0 0 -1 1v20.18a1 1 0 0 0 1 1h5.1a1 1 0 0 0 1-1v-20.18a1 1 0 0 0 -1-1zm-1 20.18h-3.1v-18.18h3.1z"/></g></svg>