<svg height="512" viewBox="0 0 128 128" width="512" xmlns="http://www.w3.org/2000/svg"><path d="m103.05 40.693 2.95-2.951 2.322 2.322a2.625 2.625 0 0 0 3.708 0l.261-.259a2.628 2.628 0 0 0 0-3.708l-6.059-6.058a2.623 2.623 0 0 0 -3.708 0l-.258.259a2.624 2.624 0 0 0 0 3.708l2.321 2.322-2.918 2.919a50.406 50.406 0 0 0 -29.052-14.331v-7.195h5.683a3 3 0 0 0 3-3v-5.221a3 3 0 0 0 -3-3h-24.6a3 3 0 0 0 -3 3v5.221a3 3 0 0 0 3 3h5.68v7.2a50.563 50.563 0 1 0 43.67 15.772z" fill="#e6e7e8"/><path d="m62 21.469a49.851 49.851 0 0 1 5.617.327v-9.075h-11.233v9.079a49.833 49.833 0 0 1 5.616-.331z" fill="#0089ef"/><rect fill="#6dc9f7" height="9.221" rx="2" width="28.592" x="47.704" y="3.5"/><circle cx="62" cy="70.984" fill="#6dc9f7" r="49.516"/><path d="m62 117.5a49.563 49.563 0 0 1 -49.477-48.016c-.015.5-.038 1-.038 1.5a49.516 49.516 0 1 0 99.031 0c0-.5-.023-1-.038-1.5a49.565 49.565 0 0 1 -49.478 48.016z" fill="#fff"/><circle cx="62" cy="70.984" fill="#f7b731" r="41.087"/><path d="m103.088 70.984a41.088 41.088 0 1 1 -41.088-41.084v41.084l29.057-29.056a40.96 40.96 0 0 1 12.031 29.056z" fill="#fa8231"/><path d="m82.057 50.908-19.205 13.95a6.291 6.291 0 0 0 -.852-.065 6.213 6.213 0 1 0 5.787 4.007z" fill="#0089ef"/><rect fill="#6dc9f7" height="3.611" rx="1.622" transform="matrix(.707 .707 -.707 .707 52.206 -63.933)" width="11.812" x="97.371" y="29.246"/><g fill="#1e272e"><path d="m57.366 4.5h8.634a1 1 0 0 0 0-2h-8.634a1 1 0 0 0 0 2z"/><path d="m62 28.9a42.088 42.088 0 1 0 42.088 42.087 42.134 42.134 0 0 0 -42.088-42.087zm0 82.175a40.088 40.088 0 1 1 40.088-40.088 40.133 40.133 0 0 1 -40.088 40.085z"/><path d="m62 39.2a2.634 2.634 0 1 0 -2.634-2.634 2.634 2.634 0 0 0 2.634 2.634z"/><circle cx="37.665" cy="46.649" r="2.634"/><circle cx="27.585" cy="70.984" r="2.634"/><circle cx="37.665" cy="95.319" r="2.634"/><path d="m62 102.766a2.634 2.634 0 1 0 2.634 2.633 2.634 2.634 0 0 0 -2.634-2.633z"/><circle cx="86.335" cy="95.319" r="2.634"/><path d="m96.415 68.351a2.634 2.634 0 1 0 2.634 2.633 2.633 2.633 0 0 0 -2.634-2.633z"/><circle cx="86.335" cy="46.649" r="2.634"/><path d="m81.469 50.1-18.892 13.722c-.191-.015-.382-.029-.577-.029a7.21 7.21 0 1 0 6.907 5.207l13.932-17.469a1 1 0 0 0 -1.37-1.432zm-19.469 26.076a5.192 5.192 0 1 1 5.191-5.192 5.2 5.2 0 0 1 -5.191 5.192zm5.965-9.2a7.238 7.238 0 0 0 -2.9-2.483l11.608-8.433z"/><path d="m99.049 36.693 2.951-2.951 2.321 2.321a2.619 2.619 0 0 0 3.707 0l.262-.259a2.626 2.626 0 0 0 0-3.708l-6.058-6.06a2.63 2.63 0 0 0 -3.709 0l-.258.258a2.621 2.621 0 0 0 0 3.709l2.322 2.322-2.92 2.919a50.4 50.4 0 0 0 -29.051-14.328v-7.195h5.684a3 3 0 0 0 3-3v-5.221a3 3 0 0 0 -3-3h-4.225a1 1 0 0 0 0 2h4.225a1 1 0 0 1 1 1v5.221a1 1 0 0 1 -1 1h-24.6a1 1 0 0 1 -1-1v-5.221a1 1 0 0 1 1-1h3.68a1 1 0 0 0 0-2h-3.68a3 3 0 0 0 -3 3v5.221a3 3 0 0 0 3 3h5.68v7.2a50.564 50.564 0 1 0 43.669 15.772zm.447-8.542a.617.617 0 0 1 .184-.44l.258-.258a.623.623 0 0 1 .879 0l6.058 6.059a.623.623 0 0 1 0 .879l-.262.259a.634.634 0 0 1 -.879 0l-6.057-6.057a.625.625 0 0 1 -.177-.442zm-42.112-14.43h9.232v6.968c-1.521-.139-3.059-.22-4.616-.22s-3.095.081-4.616.22zm4.616 105.779a48.516 48.516 0 1 1 48.516-48.516 48.571 48.571 0 0 1 -48.516 48.516z"/></g></svg>