<svg height="512" viewBox="0 0 128 128" width="512" xmlns="http://www.w3.org/2000/svg"><path d="m98.864 47.791h-4.123a29.167 29.167 0 0 0 -3.684-8.879l2.92-2.92a3.042 3.042 0 0 0 0-4.3l-5.177-5.177a3.113 3.113 0 0 0 -4.3 0l-2.92 2.92a29.183 29.183 0 0 0 -8.88-3.684v-4.123a3.043 3.043 0 0 0 -3.04-3.04h-7.322a3.043 3.043 0 0 0 -3.04 3.04v4.123a29.172 29.172 0 0 0 -8.878 3.684l-2.92-2.92a3.109 3.109 0 0 0 -4.3 0l-5.18 5.178a3.045 3.045 0 0 0 0 4.3l2.92 2.92a29.167 29.167 0 0 0 -3.684 8.879h-4.12a3.043 3.043 0 0 0 -3.036 3.038v3.662.018s0 .009 0 .014a36.028 36.028 0 0 0 12.624 26.22 32.238 32.238 0 0 1 11.052 24.7v7.944a6.011 6.011 0 0 0 4.794 5.878v1.515a5.226 5.226 0 0 0 5.22 5.22h4.3a5.226 5.226 0 0 0 5.22-5.22v-1.494a6.005 6.005 0 0 0 4.934-5.9v-8.2a33.432 33.432 0 0 1 11.541-24.887 36.027 36.027 0 0 0 12.115-25.777c0-.005 0-.011 0-.016v-.015-3.662a3.043 3.043 0 0 0 -3.036-3.039zm-48.5 5.7a15.667 15.667 0 0 1 31.272 0z" fill="#e6e7e8"/><path d="m66 15.251a1 1 0 0 0 1-1v-7.251a1 1 0 0 0 -2 0v7.251a1 1 0 0 0 1 1z" fill="#e6e7e8"/><path d="m36.108 26.558a1 1 0 0 0 1.414-1.414l-5.122-5.127a1 1 0 1 0 -1.415 1.414z" fill="#e6e7e8"/><path d="m25.215 53.492h-7.25a1 1 0 1 0 0 2h7.25a1 1 0 0 0 0-2z" fill="#e6e7e8"/><path d="m95.185 26.851a1 1 0 0 0 .707-.293l5.127-5.127a1 1 0 0 0 -1.419-1.414l-5.126 5.127a1 1 0 0 0 .707 1.707z" fill="#e6e7e8"/><path d="m114.035 53.492h-7.25a1 1 0 0 0 0 2h7.25a1 1 0 0 0 0-2z" fill="#e6e7e8"/><path d="m27.1 50.492a34.872 34.872 0 0 0 12.269 25.491 33.349 33.349 0 0 1 11.405 25.46v.542h22.464v-.8a34.324 34.324 0 0 1 11.885-25.633 34.787 34.787 0 0 0 11.777-25.06z" fill="#f7b731"/><path d="m45.313 50.492a16.687 16.687 0 0 1 33.374 0h18.213v-3.662a2.039 2.039 0 0 0 -2.04-2.039h-4.924a28.33 28.33 0 0 0 -4.156-10.016l3.49-3.49a2.039 2.039 0 0 0 0-2.885l-5.179-5.178a2.038 2.038 0 0 0 -2.884 0l-3.49 3.49a28.322 28.322 0 0 0 -10.017-4.156v-4.928a2.039 2.039 0 0 0 -2.039-2.04h-7.323a2.039 2.039 0 0 0 -2.039 2.04v4.928a28.33 28.33 0 0 0 -10.016 4.156l-3.49-3.49a2.038 2.038 0 0 0 -2.884 0l-5.179 5.178a2.039 2.039 0 0 0 0 2.885l3.49 3.49a28.33 28.33 0 0 0 -4.156 10.016h-4.928a2.039 2.039 0 0 0 -2.036 2.039v3.662z" fill="#fa8231"/><path d="m50.772 101.985h22.467a0 0 0 0 1 0 0v7.4a5 5 0 0 1 -5 5h-12.467a5 5 0 0 1 -5-5v-7.4a0 0 0 0 1 0 0z" fill="#6dc9f7"/><path d="m68.239 111.386h-12.467a5 5 0 0 1 -5-5v3a5 5 0 0 0 5 5h12.467a5 5 0 0 0 5-5v-3a5 5 0 0 1 -5 5z" fill="#fff"/><path d="m55.567 114.386h12.733a0 0 0 0 1 0 0v2.394a4.22 4.22 0 0 1 -4.22 4.22h-4.3a4.22 4.22 0 0 1 -4.22-4.22v-2.394a0 0 0 0 1 .007 0z" fill="#6dc9f7"/><g fill="#1e272e"><path d="m94.864 43.791h-4.123a29.167 29.167 0 0 0 -3.684-8.879l2.92-2.92a3.042 3.042 0 0 0 0-4.3l-5.177-5.177a3.113 3.113 0 0 0 -4.3 0l-2.92 2.92a29.183 29.183 0 0 0 -8.88-3.684v-4.123a3.043 3.043 0 0 0 -3.04-3.04h-7.322a3.043 3.043 0 0 0 -3.039 3.04v4.123a29.188 29.188 0 0 0 -8.879 3.684l-2.92-2.92a3.108 3.108 0 0 0 -4.3 0l-5.18 5.178a3.045 3.045 0 0 0 0 4.3l2.92 2.92a29.167 29.167 0 0 0 -3.684 8.879h-4.12a3.043 3.043 0 0 0 -3.036 3.038v3.662.018s0 .009 0 .014a36.028 36.028 0 0 0 12.624 26.22 32.238 32.238 0 0 1 11.052 24.7v7.944a6.011 6.011 0 0 0 4.794 5.878v1.515a5.226 5.226 0 0 0 5.22 5.22h4.3a5.226 5.226 0 0 0 5.22-5.22v-1.494a6.005 6.005 0 0 0 4.934-5.9v-8.2a33.432 33.432 0 0 1 11.541-24.887 36.027 36.027 0 0 0 12.115-25.777c0-.005 0-.011 0-.016v-.015-3.662a3.043 3.043 0 0 0 -3.036-3.039zm-66.764 3.039a1.04 1.04 0 0 1 1.04-1.039h4.928a1 1 0 0 0 .98-.8 27.251 27.251 0 0 1 4.01-9.664 1 1 0 0 0 -.127-1.259l-3.49-3.489a1.042 1.042 0 0 1 0-1.471l5.179-5.178a1.062 1.062 0 0 1 1.47 0l3.49 3.49a1 1 0 0 0 1.259.127 27.207 27.207 0 0 1 9.661-4.01 1 1 0 0 0 .8-.98v-4.929a1.041 1.041 0 0 1 1.039-1.04h7.324a1.042 1.042 0 0 1 1.04 1.04v4.929a1 1 0 0 0 .8.98 27.218 27.218 0 0 1 9.662 4.009 1 1 0 0 0 1.259-.127l3.491-3.49a1.063 1.063 0 0 1 1.469 0l5.179 5.178a1.039 1.039 0 0 1 0 1.471l-3.49 3.489a1 1 0 0 0 -.127 1.259 27.251 27.251 0 0 1 4.01 9.664 1 1 0 0 0 .98.8h4.928a1.041 1.041 0 0 1 1.036 1.04v2.662h-16.241a17.687 17.687 0 0 0 -35.318 0h-16.241zm35.985 73.17h-4.3a3.224 3.224 0 0 1 -3.22-3.22v-1.393h10.74v1.393a3.224 3.224 0 0 1 -3.22 3.22zm8.154-10.613a4.005 4.005 0 0 1 -3.991 4h-12.486a4 4 0 0 1 -3.99-4v-6.4h20.467zm-14.777-34.994h-4.394a4.086 4.086 0 0 1 0-8.172h.308a4.091 4.091 0 0 1 4.086 4.086zm7.076 26.592h-5.076v-24.592h5.076zm19.922-26.185a35.455 35.455 0 0 0 -12.217 26.182h-5.7v-24.589h4.394a6.086 6.086 0 0 0 0-12.172h-.308a6.093 6.093 0 0 0 -6.086 6.086v4.086h-5.081v-4.086a6.093 6.093 0 0 0 -6.086-6.086h-.308a6.086 6.086 0 0 0 0 12.172h4.394v24.592h-5.7a34.194 34.194 0 0 0 -11.744-25.764 34.029 34.029 0 0 1 -11.873-23.729h26.313a1 1 0 0 0 0-2h-8.094a15.667 15.667 0 0 1 31.272 0h-6.469a1 1 0 0 0 0 2h24.69a33.54 33.54 0 0 1 -11.397 23.308zm-17.922-.41v-4.083a4.091 4.091 0 0 1 4.086-4.086h.308a4.086 4.086 0 0 1 0 8.172z"/><path d="m66.5 49.492h-7.5a1 1 0 0 0 0 2h7.5a1 1 0 0 0 0-2z"/><path d="m62 11.251a1 1 0 0 0 1-1v-7.251a1 1 0 0 0 -2 0v7.251a1 1 0 0 0 1 1z"/><path d="m32.108 22.558a1 1 0 0 0 1.414-1.414l-5.122-5.127a1 1 0 1 0 -1.415 1.414z"/><path d="m21.215 49.492h-7.25a1 1 0 1 0 0 2h7.25a1 1 0 0 0 0-2z"/><path d="m91.185 22.851a1 1 0 0 0 .707-.293l5.127-5.127a1 1 0 0 0 -1.419-1.414l-5.126 5.127a1 1 0 0 0 .707 1.707z"/><path d="m110.035 49.492h-7.25a1 1 0 0 0 0 2h7.25a1 1 0 0 0 0-2z"/></g></svg>